<svg width="24px" height="24px" viewBox="0 0 24 24" xmlns="http://www.w3.org/2000/svg"><defs><style>.cls-1,.cls-2{fill:none;stroke:#000;stroke-linecap:round;stroke-width:1.5px;}.cls-1{stroke-linejoin:round;}.cls-2{stroke-linejoin:bevel;}</style></defs><g id="ic-contact-phone-2"><path class="cls-1" d="M17.22,20.16H7a2,2,0,0,1-1.87-2.71l1.93-5.14A2,2,0,0,1,8.92,11h6.37a2,2,0,0,1,1.88,1.3l1.92,5.14A2,2,0,0,1,17.22,20.16Z"/><circle class="cls-2" cx="12.11" cy="15.59" r="2"/><path class="cls-1" d="M2.08,5.73V8.11a2,2,0,0,0,2,2H5a2,2,0,0,0,2-2V6.84H7a25.64,25.64,0,0,1,10,0h0V8.11a2,2,0,0,0,2,2h.89a2,2,0,0,0,2-2V5.73a1,1,0,0,0-.81-1h0a46.18,46.18,0,0,0-18.22,0h0A1,1,0,0,0,2.08,5.73Z"/></g></svg>